<svg id="background" xmlns="http://www.w3.org/2000/svg" xmlns:xlink="http://www.w3.org/1999/xlink" viewBox="0 0 1366 768"><defs><style>.cls-1{fill:#45b3e0;}.cls-2{fill:url(#linear-gradient);}.cls-3{fill:url(#linear-gradient-2);}.cls-4{fill:url(#linear-gradient-3);}</style><linearGradient id="linear-gradient" x1="516.47" y1="503.47" x2="516.47" y2="651.56" gradientUnits="userSpaceOnUse"><stop offset="0" stop-color="#32a0e0"/><stop offset="0.82" stop-color="#16445d"/></linearGradient><linearGradient id="linear-gradient-2" x1="1078.8" y1="438.28" x2="1078.8" y2="580.56" gradientTransform="matrix(-1, 0, 0, 1, 2158.07, 0)" xlink:href="#linear-gradient"/><linearGradient id="linear-gradient-3" x1="683" y1="418" x2="683" y2="768" xlink:href="#linear-gradient"/></defs><title>heroPage</title><g id="bg"><rect id="sky" class="cls-1" width="1366" height="768"/><path class="cls-2" d="M361.68,513.83C394,496,466.06,536.27,535.53,537.14c40.11.5,173.14-5.61,167.3-16.88s55.25-24.7,69.71-11S615.71,651.56,615.71,651.56s-386-56.1-354.34-79.83S361.68,513.83,361.68,513.83Z"/><path class="cls-3" d="M1233.39,442.83C1201.07,425,1129,465.27,1059.54,466.14S823,495,823,495l156.36,85.56s386-56.1,354.34-79.83S1233.39,442.83,1233.39,442.83Z"/><path id="sea" class="cls-4" d="M0,429.89s127.87-55.17,305.43,72.16,332.27,53.28,487.92,0,245.16-32.9,286.91-6.84S1366,418,1366,418V768H0Z"/></g></svg>