<svg xmlns="http://www.w3.org/2000/svg" viewBox="0 0 193.87 148.64"><defs><style>.cls-1{fill:#ed202f;}.cls-2{fill:#fa9d1c;}.cls-3{fill:#ede925;}.cls-4{fill:#fcfac9;}</style></defs><title>blast1</title><g id="Layer_2" data-name="Layer 2"><g id="background"><g id="blast"><path class="cls-1" d="M120.63,0c-5.12,5.94-5.78,11.81-1.51,17.61,19-7.87,16.85,5.27,14.14,9.16-8.77-5.87,7.24-17.68,9.45-6.84,3.5,3.79,2.47,7-7.29,8.93,7.47.79,8.15,9.1,8.52,8.87,16.78-10.64,30.27-17.29,39.16-18.34-8.41,15-25.25,28.08-45.38,40.31,19.66-11.52,38.49-17.46,56.15-15.54-17.11,7.71-34.54,19.07-52.2,32.85,18.29-1.39,35.39-.31,48.43,9.16-11.26-1.34-31.57,3.24-52.38,8.15,16.55,2.71,31.21,7.16,42.15,15-13.73-3.24-32.45-2.91-53.22-1.12a143.94,143.94,0,0,1,48.91,32.9A245.47,245.47,0,0,0,123.89,129a9.48,9.48,0,0,0-11,5.89c2.85,4.71-1,9.24-5.15,13.76-.44-7-2.28-13.57-8.57-18.95a9.83,9.83,0,0,0-16.29-2.49c1.29,4-3,6.89-8.53,9.59a22.29,22.29,0,0,0,1.46-16.09A6.56,6.56,0,0,0,66,114.4c-3,7.41-15.37,12.49-29.92,17,8.91-8,16.74-15.94,18.54-23.1a5.23,5.23,0,0,0-5.76-8.23c-1.68,8.39-15.69,8.84-28.93,9.79C32,104.69,43.57,99.41,43.11,91.71c-17.08-16.95-1.78-25.36-1-28.09-4.32,14.5-24-4.19-42.16-19.46,13.92,9.35,27.73,18.31,36.38,8.59-.87-1.59-37-29.38,14.26-19.23C30.47,48.91,27,42.05,39.31,14,79.47,24.51,63.93,63.12,62,33.23c4.48,8.46,14.91,5.66,20.53-6.07l4.14-13.7,2,8a12,12,0,0,0,18.38,7C101.83,18.78,108,9.34,120.63,0Z"/><path class="cls-2" d="M105.65,27.79,104.79,39c-.38,4.83,4.26,8.17,8.08,5.82l2.6-1.6-1.36,2.93c-1.63,3.5,1.66,7.31,4.88,5.63L141.4,40.11l-26,25.62,32.13-9.88L117.69,76.73l27.71,5.82-30,5.18,24.12,9.53-30.46-.71,28,20.91-29.57-7.7a5.34,5.34,0,0,0-6.31,3.75l-3,8.74-4.9-12c-1.68-4.12-6.62-5-9.32-1.58l-4.88,6.09L80,104.49c.28-3.35-3-5.66-5.59-4L57.27,111.3,67.88,96.62c1.87-2.6-.46-6.3-3.3-5.24L48,97.61,61.29,86.07c5.31-4.62,5-13.64-.55-17.85L36.62,55.85l20.82,5.46C63.81,63,68.89,55.38,65.6,49.09l-6.48-12.4,13,12.22c4,3.78,10.22,1.74,11.74-3.86l2.37-8.71,1.15,5.08c1.17,5.14,6.58,7.41,10.52,4.42Z"/><path class="cls-3" d="M97.65,48.09l-.44,6.23c-.19,2.7,2.18,4.56,4.13,3.25l1.32-.89L102,58.31c-.83,1.95.85,4.07,2.48,3.14L115.87,55,102.64,69.23,119,63.72,103.79,75.35l14.13,3.24-15.28,2.89,12.29,5.31-15.52-.4L113.68,98,98.6,93.75a2.7,2.7,0,0,0-3.21,2.09l-1.51,4.87L91.39,94c-.86-2.3-3.38-2.76-4.76-.88l-2.48,3.39.42-5.69c.14-1.87-1.51-3.16-2.85-2.23l-8.73,6,5.41-8.18c1-1.45-.23-3.51-1.68-2.92L68.28,87,75,80.56a7,7,0,0,0-.27-10l-12.3-6.89,10.61,3c3.25.93,5.84-3.3,4.16-6.8l-3.3-6.91,6.62,6.8c2,2.11,5.21,1,6-2.14l1.21-4.85.58,2.82c.6,2.87,3.36,4.13,5.36,2.47Z"/><path class="cls-4" d="M93.37,66.62,93.19,69a1.18,1.18,0,0,0,1.72,1.23l.56-.34-.29.63c-.35.74.35,1.55,1,1.2L101,69.24l-5.55,5.45,6.86-2.11L95.94,77l5.92,1.24-6.4,1.1,5.15,2-6.5-.15,6,4.45-6.31-1.64a1.13,1.13,0,0,0-1.35.8l-.63,1.85-1.05-2.56a1.15,1.15,0,0,0-2-.33l-1,1.29.18-2.17a.81.81,0,0,0-1.2-.85L83,84.38l2.26-3.13c.4-.55-.1-1.34-.7-1.11l-3.54,1.32L83.9,79a2.51,2.51,0,0,0-.12-3.8l-5.15-2.63,4.44,1.17a1.73,1.73,0,0,0,1.75-2.6l-1.39-2.64,2.78,2.6a1.52,1.52,0,0,0,2.51-.82l.5-1.85.25,1.08a1.42,1.42,0,0,0,2.24.94Z"/></g></g></g></svg>