<svg xmlns="http://www.w3.org/2000/svg" xmlns:xlink="http://www.w3.org/1999/xlink" viewBox="0 0 484.54 162.3"><defs><style>.cls-1{fill:#09314f;}.cls-1,.cls-2,.cls-3,.cls-4,.cls-5,.cls-6{stroke:#000;stroke-miterlimit:10;}.cls-2{fill:#072130;}.cls-3{fill:url(#linear-gradient);}.cls-4,.cls-6{fill:none;}.cls-4{stroke-width:2px;}.cls-5{fill:#f41c1c;}.cls-6{stroke-linecap:round;stroke-width:5px;}</style><linearGradient id="linear-gradient" x1="275.63" y1="30.31" x2="243.91" y2="85.25" gradientUnits="userSpaceOnUse"><stop offset="0" stop-color="#cce0f4"/><stop offset="0.11" stop-color="#d5e6f6"/><stop offset="0.26" stop-color="#ebf4fa"/><stop offset="0.37" stop-color="#cdd9df"/><stop offset="0.62" stop-color="#829299"/><stop offset="0.97" stop-color="#122a32"/></linearGradient></defs><title>fighterPlane</title><g id="Layer_2" data-name="Layer 2"><g id="master"><g id="fighterPlane"><path class="cls-1" d="M72,56.19S111.91,66.7,128.73,68.8s65.16-6.3,65.16-6.3,46.24-23.13,69.36-23.13,42,6.31,48.35,14.72S484,60.39,484,79.31,444,104.54,444,104.54v12.61S324.21,140.27,278,134c0,0-2.11,12.62-10.51,12.62s-69.37,6.3-128.23-29.43c0,0-109.3-14.72-121.91-16.82S.68,80.12.5,68.8C.32,57.29,6,6.68,11,7.85c12.74-8.9,24.63-8.7,35.74,0Z"/><path class="cls-2" d="M208.6,123.45s33.63-12.61,61-25.22,71.47,8.41,77.77,12.61,5.25,20.37,5.25,20.37c-26.89,4.09-51.54,5-72.51.65Z"/><path class="cls-3" d="M199.68,59.72S219.11,70.9,259.05,70.9s60.19-14.34,60.19-14.34c3.6.28-29.8-21.16-60.19-17.19C233.8,42.68,199.75,58.51,199.68,59.72Z"/><line class="cls-4" x1="299.25" y1="45.88" x2="299.25" y2="65.33"/><path class="cls-5" d="M8.92,10h39s.42-4.88-17.18-8.79S8.92,10,8.92,10Z"/><path class="cls-5" d="M444,104.54V66.62s42,4.28,39.94,12.69S479.76,98.23,444,104.54Z"/><path class="cls-2" d="M26.78,74.06,79.33,72s18.92,4.2,8.41,8.4-52.55,4.21-58.86,2.11S26.78,74.06,26.78,74.06Z"/><line class="cls-6" x1="458" y1="21.8" x2="458" y2="159.8"/></g></g></g></svg>