<svg xmlns="http://www.w3.org/2000/svg" viewBox="0 0 413 172"><defs><style>.cls-1{fill:none;stroke:#000;stroke-miterlimit:10;}.cls-2,.cls-3{fill:#fff;}.cls-3{font-size:12px;font-family:Raleway-Regular, Raleway;letter-spacing:-0.02em;}.cls-4{letter-spacing:-0.01em;}.cls-5{letter-spacing:0em;}</style></defs><title>keyBoard</title><g id="Layer_2" data-name="Layer 2"><g id="keyboard"><rect id="keyboardFrame" class="cls-1" x="0.5" y="0.5" width="412" height="171" rx="5.66"/><g id="keys"><rect x="12" y="12" width="26" height="15" rx="2.38"/><rect x="12.5" y="33.5" width="26" height="21" rx="2.38"/><rect x="47.5" y="33.5" width="26" height="21" rx="2.38"/><rect x="63.5" y="58.5" width="26" height="21" rx="2.38"/><rect x="97.5" y="58.5" width="26" height="21" rx="2.38"/><rect x="132.5" y="58.5" width="26" height="21" rx="2.38"/><rect x="166.5" y="58.5" width="26" height="21" rx="2.38"/><rect x="201.5" y="58.5" width="26" height="21" rx="2.38"/><rect x="235.5" y="58.5" width="26" height="21" rx="2.38"/><rect x="271.5" y="58.5" width="26" height="21" rx="2.38"/><rect x="82.5" y="85.5" width="26" height="21" rx="2.38"/><rect x="116.5" y="85.5" width="26" height="21" rx="2.38"/><rect x="151.5" y="85.5" width="26" height="21" rx="2.38"/><rect x="185.5" y="85.5" width="26" height="21" rx="2.38"/><rect x="220.5" y="85.5" width="26" height="21" rx="2.38"/><rect x="254.5" y="85.5" width="26" height="21" rx="2.38"/><rect x="290.5" y="85.5" width="26" height="21" rx="2.38"/><rect x="326.5" y="85.5" width="26" height="21" rx="2.38"/><rect x="94.5" y="111.5" width="26" height="21" rx="2.38"/><rect x="128.5" y="111.5" width="26" height="21" rx="2.38"/><rect x="163.5" y="111.5" width="26" height="21" rx="2.38"/><rect x="12.5" y="137.5" width="26" height="21" rx="2.38"/><rect x="45.5" y="137.5" width="26" height="21" rx="2.38"/><rect x="79.5" y="137.5" width="26" height="21" rx="2.38"/><rect x="296.5" y="137.5" width="26" height="21" rx="2.38"/><rect x="197.5" y="111.5" width="26" height="21" rx="2.38"/><rect x="233.5" y="111.5" width="26" height="21" rx="2.38"/><rect x="269.5" y="111.5" width="26" height="21" rx="2.38"/><rect x="356.5" y="135.5" width="21" height="11" rx="2.38"/><rect x="356.5" y="148.5" width="21" height="11" rx="2.38"/><rect x="381.5" y="148.5" width="21" height="11" rx="2.38"/><rect x="331.5" y="148.5" width="21" height="11" rx="2.38"/><rect x="306.5" y="58.5" width="26" height="21" rx="2.38"/><rect x="342.5" y="58.5" width="26" height="21" rx="2.38"/><rect x="376.5" y="58.5" width="26" height="21" rx="2.38"/><rect x="82.5" y="33.5" width="26" height="21" rx="2.38"/><rect x="117.5" y="33.5" width="26" height="21" rx="2.38"/><rect x="151.5" y="33.5" width="26" height="21" rx="2.38"/><rect x="186.5" y="33.5" width="26" height="21" rx="2.38"/><rect x="221.5" y="33.5" width="26" height="21" rx="2.38"/><rect x="256.5" y="33.5" width="26" height="21" rx="2.38"/><rect x="291.5" y="33.5" width="26" height="21" rx="2.38"/><rect x="326.5" y="33.5" width="26" height="21" rx="2.38"/><rect x="360.5" y="33.5" width="42" height="21" rx="2.38"/><rect x="361.5" y="85.5" width="42" height="21" rx="2.38"/><rect x="11.5" y="58.5" width="42" height="21" rx="2.38"/><rect x="11.5" y="85.5" width="57" height="21" rx="2.38"/><rect x="11.5" y="111.5" width="71" height="21" rx="2.38"/><rect x="112.5" y="138.5" width="178" height="21" rx="2.38"/><rect x="339.5" y="111.5" width="63" height="21" rx="2.38"/><rect x="45.5" y="12.5" width="26" height="15" rx="2.38"/><rect x="78.5" y="12.5" width="26" height="15" rx="2.38"/><rect x="112.5" y="12.5" width="26" height="15" rx="2.38"/><rect x="145.5" y="12.5" width="26" height="15" rx="2.38"/><rect x="178.5" y="12.5" width="26" height="15" rx="2.38"/><rect x="210.5" y="12.5" width="26" height="15" rx="2.38"/><rect x="244.5" y="12.5" width="26" height="15" rx="2.38"/><rect x="278.5" y="12.5" width="26" height="15" rx="2.38"/><rect x="311.5" y="12.5" width="26" height="15" rx="2.38"/><rect x="344.5" y="12.5" width="26" height="15" rx="2.38"/><rect x="376.5" y="12.5" width="26" height="15" rx="2.38"/></g><polygon id="upKey" class="cls-2" points="367 137.86 368.63 140.68 370.26 143.5 367 143.5 363.74 143.5 365.37 140.68 367 137.86"/><polygon id="downKey" class="cls-2" points="367 157.5 365.37 154.68 363.74 151.86 367 151.86 370.26 151.86 368.63 154.68 367 157.5"/><text class="cls-3" transform="translate(367.1 99.58)">r<tspan class="cls-4" x="4.02" y="0">e</tspan><tspan class="cls-5" x="11" y="0">turn</tspan></text></g></g></svg>