<svg id="background" xmlns="http://www.w3.org/2000/svg" xmlns:xlink="http://www.w3.org/1999/xlink" viewBox="0 0 1370 768"><defs><style>.cls-1{fill:url(#linear-gradient);}.cls-2{fill:#02c2d1;}.cls-3{fill:url(#linear-gradient-2);}.cls-4{fill:none;stroke:#a8d4e1;stroke-linecap:round;stroke-miterlimit:10;stroke-width:8px;}</style><linearGradient id="linear-gradient" x1="683" y1="768" x2="683" gradientUnits="userSpaceOnUse"><stop offset="0" stop-color="#fff"/><stop offset="1" stop-color="#a8d4e1"/></linearGradient><linearGradient id="linear-gradient-2" x1="684" y1="768" x2="684" y2="523.1" gradientUnits="userSpaceOnUse"><stop offset="0" stop-color="#145760"/><stop offset="0.08" stop-color="#125d67"/><stop offset="0.7" stop-color="#058b9c"/><stop offset="1" stop-color="#009db1"/></linearGradient></defs><title>projects_heroPage_copy</title><g id="bg"><rect id="sky" class="cls-1" width="1366" height="768"/></g><path class="cls-2" d="M1366,533.53a23.87,23.87,0,0,1-13-8.15,25.52,25.52,0,0,1-19.73,10,23.84,23.84,0,0,1-19-9.32,25.35,25.35,0,0,1-18.07,8.08,23.92,23.92,0,0,1-20-10.75A25.36,25.36,0,0,1,1258,531.7a23.76,23.76,0,0,1-18.53-8.79,25.54,25.54,0,0,1-19.73,10,23.74,23.74,0,0,1-17.27-7.36,25.38,25.38,0,0,1-18.53,8.59,23.75,23.75,0,0,1-18.43-8.67,25.4,25.4,0,0,1-18.6,8.67,23.79,23.79,0,0,1-18.44-8.67,25.36,25.36,0,0,1-18.59,8.67A23.86,23.86,0,0,1,1090.22,524a25.55,25.55,0,0,1-19.87,10.21,23.77,23.77,0,0,1-18.44-8.67,25.36,25.36,0,0,1-18.59,8.67,23.83,23.83,0,0,1-19-9.41,25.47,25.47,0,0,1-19.23,9.41,23.79,23.79,0,0,1-18.44-8.67A25.36,25.36,0,0,1,958,534.17a23.83,23.83,0,0,1-19-9.32A25.32,25.32,0,0,1,921,532.94a23.85,23.85,0,0,1-19.18-9.6,25.58,25.58,0,0,1-20.32,10.83,23.83,23.83,0,0,1-19-9.41,25.47,25.47,0,0,1-19.23,9.41,23.79,23.79,0,0,1-19-9.32,25.36,25.36,0,0,1-18.07,8.09,23.72,23.72,0,0,1-17.27-7.36,25.38,25.38,0,0,1-18.53,8.59,23.9,23.9,0,0,1-19.53-10.06,25.42,25.42,0,0,1-18.74,8.83,23.84,23.84,0,0,1-19-9.41,25.47,25.47,0,0,1-19.23,9.41A23.75,23.75,0,0,1,676,525a25.31,25.31,0,0,1-18,8,23.88,23.88,0,0,1-19.63-10.22,25.56,25.56,0,0,1-19.87,10.22,23.68,23.68,0,0,1-16.64-6.74,25.12,25.12,0,0,1-16.69,6.74,23.82,23.82,0,0,1-18.54-8.79,25.51,25.51,0,0,1-19.73,10,23.82,23.82,0,0,1-19-9.41,25.47,25.47,0,0,1-19.23,9.41,23.79,23.79,0,0,1-19-9.32,25.36,25.36,0,0,1-18.07,8.09,23.8,23.8,0,0,1-18.41-8.63,25.24,25.24,0,0,1-17.39,7.39,23.82,23.82,0,0,1-19.18-9.6,25.56,25.56,0,0,1-20.32,10.84,23.84,23.84,0,0,1-19-9.41,25.51,25.51,0,0,1-19.24,9.41,23.84,23.84,0,0,1-19-9.41,25.47,25.47,0,0,1-19.23,9.41,23.86,23.86,0,0,1-19-9.41,25.47,25.47,0,0,1-19.23,9.41,23.84,23.84,0,0,1-19-9.41,25.49,25.49,0,0,1-19.24,9.41,23.77,23.77,0,0,1-18.43-8.67,25.42,25.42,0,0,1-18.6,8.67,23.75,23.75,0,0,1-18.43-8.67,25.43,25.43,0,0,1-18.6,8.67,23.79,23.79,0,0,1-18.44-8.67,25.39,25.39,0,0,1-18.59,8.67,23.88,23.88,0,0,1-19.53-10.07,25.38,25.38,0,0,1-18.74,8.83,23.79,23.79,0,0,1-18.54-8.79,25.52,25.52,0,0,1-19.72,10,23.87,23.87,0,0,1-19.53-10.07,25.4,25.4,0,0,1-18.74,8.83A23.63,23.63,0,0,1,4,527.6V767H1370V534.12a23.65,23.65,0,0,1-4-.59"/><path class="cls-3" d="M1366,768h1V535.12a23.74,23.74,0,0,1-17-8.74,25.52,25.52,0,0,1-19.73,10,23.84,23.84,0,0,1-19-9.32,25.35,25.35,0,0,1-18.07,8.08,23.92,23.92,0,0,1-20-10.75A25.36,25.36,0,0,1,1255,532.7a23.76,23.76,0,0,1-18.53-8.79,25.54,25.54,0,0,1-19.73,10,23.74,23.74,0,0,1-17.27-7.36,25.38,25.38,0,0,1-18.53,8.59,23.75,23.75,0,0,1-18.43-8.67,25.4,25.4,0,0,1-18.6,8.67,23.79,23.79,0,0,1-18.44-8.67,25.36,25.36,0,0,1-18.59,8.67A23.86,23.86,0,0,1,1087.22,525a25.55,25.55,0,0,1-19.87,10.21,23.77,23.77,0,0,1-18.44-8.67,25.36,25.36,0,0,1-18.59,8.67,23.83,23.83,0,0,1-19-9.41,25.47,25.47,0,0,1-19.23,9.41,23.79,23.79,0,0,1-18.44-8.67A25.36,25.36,0,0,1,955,535.17a23.83,23.83,0,0,1-19-9.32A25.32,25.32,0,0,1,918,533.94a23.85,23.85,0,0,1-19.18-9.6,25.58,25.58,0,0,1-20.32,10.83,23.83,23.83,0,0,1-19-9.41,25.47,25.47,0,0,1-19.23,9.41,23.79,23.79,0,0,1-19-9.32,25.36,25.36,0,0,1-18.07,8.09,23.72,23.72,0,0,1-17.27-7.36,25.38,25.38,0,0,1-18.53,8.59,23.9,23.9,0,0,1-19.53-10.06,25.42,25.42,0,0,1-18.74,8.83,23.84,23.84,0,0,1-19-9.41,25.47,25.47,0,0,1-19.23,9.41A23.75,23.75,0,0,1,673,526a25.31,25.31,0,0,1-18,8,23.88,23.88,0,0,1-19.63-10.22,25.56,25.56,0,0,1-19.87,10.22,23.68,23.68,0,0,1-16.64-6.74,25.12,25.12,0,0,1-16.69,6.74,23.82,23.82,0,0,1-18.54-8.79,25.51,25.51,0,0,1-19.73,10,23.82,23.82,0,0,1-19-9.41,25.47,25.47,0,0,1-19.23,9.41,23.79,23.79,0,0,1-19-9.32,25.36,25.36,0,0,1-18.07,8.09,23.8,23.8,0,0,1-18.41-8.63,25.24,25.24,0,0,1-17.39,7.39,23.82,23.82,0,0,1-19.18-9.6,25.56,25.56,0,0,1-20.32,10.84,23.84,23.84,0,0,1-19-9.41,25.51,25.51,0,0,1-19.24,9.41,23.84,23.84,0,0,1-19-9.41,25.47,25.47,0,0,1-19.23,9.41,23.86,23.86,0,0,1-19-9.41,25.47,25.47,0,0,1-19.23,9.41,23.84,23.84,0,0,1-19-9.41,25.49,25.49,0,0,1-19.24,9.41,23.77,23.77,0,0,1-18.43-8.67,25.42,25.42,0,0,1-18.6,8.67,23.75,23.75,0,0,1-18.43-8.67,25.43,25.43,0,0,1-18.6,8.67,23.79,23.79,0,0,1-18.44-8.67,25.39,25.39,0,0,1-18.59,8.67,23.88,23.88,0,0,1-19.53-10.07,25.38,25.38,0,0,1-18.74,8.83,23.79,23.79,0,0,1-18.54-8.79,25.52,25.52,0,0,1-19.72,10,23.87,23.87,0,0,1-19.53-10.07,25.4,25.4,0,0,1-18.74,8.83A23.63,23.63,0,0,1,1,528.6V768H1366"/><line class="cls-4" x1="188.5" y1="601.5" x2="287.5" y2="601.5"/><line class="cls-4" x1="226" y1="609" x2="304" y2="609"/><line class="cls-4" x1="204" y1="617" x2="286" y2="617"/><line class="cls-4" x1="1127.5" y1="689.5" x2="1226.5" y2="689.5"/><line class="cls-4" x1="1165" y1="697" x2="1243" y2="697"/><line class="cls-4" x1="1143" y1="705" x2="1225" y2="705"/><line class="cls-4" x1="479" y1="689" x2="549" y2="689"/><line class="cls-4" x1="506" y1="697" x2="564" y2="697"/></svg>