<svg id="background" xmlns="http://www.w3.org/2000/svg" xmlns:xlink="http://www.w3.org/1999/xlink" viewBox="0 0 1366 768"><defs><style>.cls-1{fill:url(#linear-gradient);}.cls-2{fill:#02c2d1;}.cls-3{fill:url(#linear-gradient-2);}.cls-4{fill:none;stroke:#a8d4e1;stroke-linecap:round;stroke-miterlimit:10;stroke-width:8px;}</style><linearGradient id="linear-gradient" x1="683" y1="768" x2="683" gradientUnits="userSpaceOnUse"><stop offset="0" stop-color="#fff"/><stop offset="1" stop-color="#a8d4e1"/></linearGradient><linearGradient id="linear-gradient-2" x1="683" y1="768" x2="683" y2="454.84" gradientUnits="userSpaceOnUse"><stop offset="0" stop-color="#145760"/><stop offset="0.42" stop-color="#135962"/><stop offset="0.6" stop-color="#125f69"/><stop offset="0.73" stop-color="#0f6a76"/><stop offset="0.84" stop-color="#0a7987"/><stop offset="0.94" stop-color="#058d9e"/><stop offset="1" stop-color="#009db1"/></linearGradient></defs><title>projects_heroPage_copy</title><g id="bg"><rect id="sky" class="cls-1" width="1366" height="768"/></g><path class="cls-2" d="M1362,465.61c-5.23-1.57-9.71-5.32-13-10.42-4.65,7.71-12.09,12.82-19.73,12.82-7.86,0-14.56-4.71-19-11.92-4.66,6.31-11.29,10.34-18.07,10.34-8.52,0-15.66-5.52-20-13.75-4.66,6.45-11.38,10.59-18.26,10.59-7.61,0-14.13-4.41-18.53-11.24-4.65,7.71-12.1,12.82-19.73,12.82-6.92,0-12.92-3.63-17.27-9.41-4.67,6.68-11.52,11-18.53,11-7.56,0-14-4.35-18.43-11.08-4.68,6.72-11.56,11.08-18.6,11.08-7.56,0-14-4.35-18.44-11.08-4.67,6.72-11.55,11.08-18.59,11.08-8.28,0-15.26-5.21-19.63-13.06-4.64,7.84-12.16,13.06-19.87,13.06-7.56,0-14-4.35-18.44-11.08-4.67,6.72-11.55,11.08-18.59,11.08-7.91,0-14.64-4.76-19-12-4.67,7.26-11.86,12-19.23,12-7.56,0-14-4.35-18.44-11.08-4.67,6.72-11.55,11.08-18.59,11.08-7.87,0-14.56-4.71-19-11.92-4.65,6.31-11.28,10.34-18.06,10.34-8,0-14.78-4.86-19.18-12.27-4.59,8.28-12.35,13.85-20.32,13.85s-14.64-4.76-19-12c-4.67,7.26-11.86,12-19.23,12-7.87,0-14.56-4.71-19-11.92-4.66,6.31-11.29,10.34-18.07,10.34s-12.93-3.63-17.27-9.41c-4.67,6.68-11.52,11-18.53,11-8.21,0-15.14-5.12-19.53-12.87-4.67,6.85-11.62,11.29-18.74,11.29-7.91,0-14.63-4.76-19-12-4.67,7.26-11.86,12-19.23,12s-13.46-4-17.84-10.19c-4.65,6.22-11.23,10.19-18,10.19-8.28,0-15.25-5.21-19.63-13.06-4.64,7.84-12.16,13.06-19.87,13.06-6.59,0-12.35-3.3-16.64-8.61-4.54,5.3-10.55,8.61-16.69,8.61-7.62,0-14.13-4.41-18.54-11.24C558,461.32,550.6,466.43,543,466.43c-7.9,0-14.63-4.76-19-12-4.67,7.26-11.86,12-19.23,12-7.87,0-14.56-4.71-19-11.92-4.66,6.31-11.29,10.34-18.07,10.34-7.54,0-14-4.33-18.41-11-4.61,5.79-10.93,9.45-17.39,9.45-8,0-14.78-4.86-19.18-12.27-4.59,8.28-12.35,13.85-20.32,13.85s-14.63-4.76-19-12c-4.68,7.26-11.87,12-19.24,12-7.91,0-14.63-4.76-19-12-4.67,7.26-11.86,12-19.23,12-7.91,0-14.64-4.76-19-12-4.67,7.26-11.86,12-19.23,12-7.91,0-14.63-4.76-19-12-4.68,7.26-11.86,12-19.24,12-7.55,0-14-4.35-18.43-11.08-4.68,6.73-11.55,11.08-18.6,11.08-7.56,0-14-4.35-18.43-11.08-4.68,6.73-11.56,11.08-18.6,11.08-7.56,0-14-4.35-18.44-11.08-4.67,6.73-11.55,11.08-18.59,11.08-8.21,0-15.14-5.12-19.53-12.87-4.67,6.85-11.62,11.29-18.74,11.29-7.62,0-14.13-4.41-18.54-11.24-4.65,7.71-12.09,12.82-19.72,12.82-8.21,0-15.15-5.12-19.53-12.87-4.68,6.85-11.62,11.29-18.74,11.29A20.22,20.22,0,0,1,0,458V764.16H1366V466.36a19,19,0,0,1-4-.75"/><path class="cls-3" d="M1365,768h1V470.2c-7-.55-12.9-4.81-17-11.17-4.65,7.7-12.09,12.82-19.73,12.82-7.86,0-14.56-4.71-19-11.92-4.66,6.3-11.29,10.34-18.07,10.34-8.52,0-15.66-5.52-20-13.76-4.66,6.45-11.38,10.6-18.26,10.6-7.61,0-14.13-4.42-18.53-11.24-4.65,7.71-12.1,12.82-19.73,12.82-6.92,0-12.92-3.64-17.27-9.41-4.67,6.67-11.52,11-18.53,11-7.56,0-14-4.35-18.43-11.09-4.68,6.73-11.56,11.09-18.6,11.09-7.56,0-14-4.35-18.44-11.09-4.67,6.73-11.55,11.09-18.59,11.09-8.28,0-15.26-5.21-19.63-13.07-4.64,7.85-12.16,13.07-19.87,13.07-7.56,0-14-4.35-18.44-11.09-4.67,6.73-11.55,11.09-18.59,11.09-7.91,0-14.64-4.76-19-12-4.67,7.27-11.86,12-19.23,12-7.56,0-14-4.35-18.44-11.09-4.67,6.73-11.55,11.09-18.59,11.09-7.87,0-14.56-4.71-19-11.92-4.65,6.3-11.28,10.34-18.06,10.34-8,0-14.78-4.87-19.18-12.28-4.59,8.29-12.35,13.86-20.32,13.86s-14.64-4.76-19-12c-4.67,7.27-11.86,12-19.23,12-7.87,0-14.56-4.71-19-11.92-4.66,6.3-11.29,10.34-18.07,10.34s-12.93-3.64-17.27-9.41c-4.67,6.67-11.52,11-18.53,11-8.21,0-15.14-5.13-19.53-12.87-4.67,6.84-11.62,11.29-18.74,11.29-7.91,0-14.63-4.76-19-12-4.67,7.27-11.86,12-19.23,12s-13.46-4-17.84-10.2c-4.65,6.22-11.23,10.2-18,10.2-8.28,0-15.25-5.21-19.63-13.06-4.64,7.84-12.16,13.06-19.87,13.06-6.59,0-12.35-3.31-16.64-8.61-4.54,5.3-10.55,8.61-16.69,8.61-7.62,0-14.13-4.42-18.54-11.24C558,465.16,550.6,470.27,543,470.27c-7.9,0-14.63-4.76-19-12-4.67,7.27-11.86,12-19.23,12-7.87,0-14.56-4.71-19-11.92-4.66,6.3-11.29,10.34-18.07,10.34-7.54,0-14-4.33-18.41-11-4.61,5.8-10.93,9.46-17.39,9.46-8,0-14.78-4.86-19.18-12.27-4.59,8.28-12.35,13.85-20.32,13.85s-14.63-4.76-19-12c-4.68,7.27-11.87,12-19.24,12-7.91,0-14.63-4.76-19-12-4.67,7.27-11.86,12-19.23,12-7.91,0-14.64-4.76-19-12-4.67,7.27-11.86,12-19.23,12-7.91,0-14.63-4.76-19-12-4.68,7.27-11.86,12-19.24,12-7.55,0-14-4.35-18.43-11.09-4.68,6.73-11.55,11.09-18.6,11.09-7.56,0-14-4.35-18.43-11.09-4.68,6.73-11.56,11.09-18.6,11.09-7.56,0-14-4.35-18.44-11.09-4.67,6.73-11.55,11.09-18.59,11.09-8.21,0-15.14-5.13-19.53-12.87-4.67,6.85-11.62,11.29-18.74,11.29-7.62,0-14.13-4.42-18.54-11.24-4.65,7.71-12.09,12.82-19.72,12.82-8.21,0-15.15-5.13-19.53-12.87-4.68,6.85-11.62,11.29-18.74,11.29A20.27,20.27,0,0,1,0,461.87V768H1365"/><line class="cls-4" x1="368.5" y1="551.5" x2="467.5" y2="551.5"/><line class="cls-4" x1="406" y1="559" x2="484" y2="559"/><line class="cls-4" x1="384" y1="567" x2="466" y2="567"/><line class="cls-4" x1="1127.5" y1="689.5" x2="1226.5" y2="689.5"/><line class="cls-4" x1="1165" y1="697" x2="1243" y2="697"/><line class="cls-4" x1="1143" y1="705" x2="1225" y2="705"/><line class="cls-4" x1="6" y1="689" x2="39" y2="689"/><line class="cls-4" x1="6" y1="697" x2="54" y2="697"/></svg>