<svg xmlns="http://www.w3.org/2000/svg" xmlns:xlink="http://www.w3.org/1999/xlink" viewBox="0 0 396 85.4"><defs><style>.cls-1{fill:#555;}.cls-2{fill:#787892;}.cls-12,.cls-14,.cls-18,.cls-3,.cls-4,.cls-7,.cls-8{fill:none;}.cls-3,.cls-4,.cls-8{stroke:#555;}.cls-10,.cls-11,.cls-12,.cls-13,.cls-14,.cls-15,.cls-16,.cls-18,.cls-3,.cls-4,.cls-5,.cls-7,.cls-8,.cls-9{stroke-miterlimit:10;}.cls-3,.cls-4{stroke-width:3px;}.cls-14,.cls-18,.cls-4,.cls-5,.cls-7,.cls-8{stroke-linecap:round;}.cls-5{fill:#fff;stroke:#fff;}.cls-10,.cls-11,.cls-12,.cls-13,.cls-14,.cls-15,.cls-16,.cls-5,.cls-9{stroke-width:0.25px;}.cls-6{fill:#333;}.cls-10,.cls-11,.cls-12,.cls-13,.cls-14,.cls-15,.cls-16,.cls-7,.cls-9{stroke:#000;}.cls-7{stroke-width:0.5px;}.cls-9{fill:#4b5320;}.cls-10{fill:#1f210d;}.cls-11{fill:url(#linear-gradient);}.cls-13{fill:#f41c1c;}.cls-15{fill:url(#linear-gradient-2);}.cls-16{fill:url(#linear-gradient-3);}.cls-17{fill:#2f3030;}.cls-18{stroke:#2f3030;}</style><linearGradient id="linear-gradient" x1="196.18" y1="-560.97" x2="193.15" y2="-566.21" gradientTransform="matrix(1, -0.05, -0.05, -1, -26.83, -517.97)" gradientUnits="userSpaceOnUse"><stop offset="0" stop-color="#cce0f4"/><stop offset="0.11" stop-color="#d5e6f6"/><stop offset="0.26" stop-color="#ebf4fa"/><stop offset="0.37" stop-color="#cdd9df"/><stop offset="0.62" stop-color="#829299"/><stop offset="0.97" stop-color="#122a32"/></linearGradient><linearGradient id="linear-gradient-2" x1="258.09" y1="-564.24" x2="255.07" y2="-569.48" xlink:href="#linear-gradient"/><linearGradient id="linear-gradient-3" x1="321" y1="-567.56" x2="317.98" y2="-572.8" xlink:href="#linear-gradient"/></defs><title>gunship2</title><g id="Layer_2" data-name="Layer 2"><g id="trace"><rect class="cls-1" x="14.49" y="27.42" width="8.28" height="8.28" rx="1.52"/><path class="cls-2" d="M20.13,83.74A1.76,1.76,0,0,0,21.82,85l266.54.4a5.25,5.25,0,0,0,2.83-.83l42.66-27.14a6.49,6.49,0,0,1,3.5-1h24.1a2.77,2.77,0,0,0,1.65-.55l7.57-5.69L392,49.5,395.5,44H0L3,50.5l7.35-.3Z"/><path class="cls-2" d="M33.13,43.91H140.81L140.5,36c0-1.51-.49-2-2-2h-18l-.4-20.92a4.37,4.37,0,0,0-4.37-4.37H91.11V2.84a.34.34,0,0,0-.34-.34H74.54V8.71L69.2,23a3.56,3.56,0,0,1-3.33,2.31H48.17a4.88,4.88,0,0,0-4.07,2.18Z"/><line class="cls-3" x1="22.78" y1="17.07" x2="22.78" y2="43.98"/><line class="cls-4" x1="18.64" y1="17.07" x2="26.92" y2="17.07"/><path class="cls-1" d="M57.55,62.48h49.7a2.5,2.5,0,0,1,2.5,2.5v0a7.85,7.85,0,0,1-7.85,7.85H52.2a2.5,2.5,0,0,1-2.5-2.5v0a7.85,7.85,0,0,1,7.85-7.85Z"/><rect class="cls-5" x="118.03" y="61.48" width="4.14" height="4.14"/><rect class="cls-5" x="126.31" y="61.48" width="4.14" height="4.14"/><rect class="cls-5" x="134.59" y="61.48" width="4.14" height="4.14"/><rect class="cls-5" x="142.88" y="61.48" width="4.14" height="4.14"/><rect class="cls-5" x="151.16" y="61.48" width="4.14" height="4.14"/><rect class="cls-5" x="49.03" y="33.48" width="4.14" height="4.14"/><rect class="cls-5" x="57.31" y="33.48" width="4.14" height="4.14"/><rect class="cls-5" x="65.59" y="33.48" width="4.14" height="4.14"/><rect class="cls-5" x="73.88" y="33.48" width="4.14" height="4.14"/><rect class="cls-5" x="82.16" y="33.48" width="4.14" height="4.14"/><rect class="cls-5" x="90.16" y="33.48" width="4.14" height="4.14"/><rect class="cls-5" x="98.16" y="33.48" width="4.14" height="4.14"/><rect class="cls-5" x="159.44" y="61.48" width="4.14" height="4.14"/><path class="cls-6" d="M5.54,51H389.29a3.89,3.89,0,0,0,3.34-1.89L396,43.5H0l2.06,5.15A3.74,3.74,0,0,0,5.54,51Z"/><path class="cls-1" d="M17,72.83l5.41-8a5.33,5.33,0,0,1,4.41-2.34H38.88a5.65,5.65,0,0,0,3.71-1.39l5-4.4a4.94,4.94,0,0,1,3.23-1.21H232.42a4,4,0,0,0,1.14-.16l5.57-1.59a6.26,6.26,0,0,1,1.77-.25L366.5,53l3.07-2h-359Z"/><line class="cls-7" x1="175.98" y1="39.07" x2="175.98" y2="41.49"/><circle cx="175.88" cy="42.14" r="1.21"/><path class="cls-1" d="M19.66,81.85,296.5,81l-6,4a5,5,0,0,1-1.7.4L22,85a2,2,0,0,1-1.91-1.47Z"/><path class="cls-1" d="M113.61,35.77l-3.86,7.73h31.06l-.27-8.25A1.29,1.29,0,0,0,139.25,34H116.48A3.23,3.23,0,0,0,113.61,35.77Z"/><rect class="cls-2" x="71.5" width="23" height="5" rx="2.5"/><line class="cls-8" x1="79.5" y1="14.5" x2="111.5" y2="14.5"/><line class="cls-8" x1="83" y1="17.5" x2="115" y2="17.5"/><line class="cls-7" x1="212.14" y1="39.72" x2="212.14" y2="42.14"/><g id="Layer_2-2" data-name="Layer 2"><g id="master"><g id="fighterPlane"><path class="cls-9" d="M179.35,35.38s3.86.8,5.47.91a35.12,35.12,0,0,0,6.18-.93s4.29-2.43,6.5-2.55,4,.39,4.69,1.16,16.46-.27,16.55,1.54-3.68,2.6-3.68,2.6l.06,1.2s-11.3,2.8-15.74,2.44c0,0-.14,1.21-.94,1.25a21.45,21.45,0,0,1-12.37-2.16s-10.49-.85-11.7-1-1.7-1.84-1.77-2.91.21-5.95.69-5.87a2.62,2.62,0,0,1,3.4-.18Z"/><path class="cls-10" d="M192.71,41.09s3.14-1.37,5.69-2.7,6.86.44,7.48.81.61,1.91.61,1.91a19.91,19.91,0,0,1-6.91.43Z"/><path class="cls-11" d="M191.54,35.07a12.2,12.2,0,0,0,5.72.77,10.61,10.61,0,0,0,5.67-1.67c.34,0-3-1.87-5.83-1.34A18.63,18.63,0,0,0,191.54,35.07Z"/><line class="cls-12" x1="200.97" y1="33.25" x2="201.06" y2="35.1"/><path class="cls-13" d="M173.1,31.29l3.72-.2s0-.47-1.68-.75S173.1,31.29,173.1,31.29Z"/><path class="cls-13" d="M215.06,38.11l-.19-3.61s4,.19,3.86,1S218.44,37.33,215.06,38.11Z"/><path class="cls-10" d="M175.13,37.31l5-.46s1.82.3.84.75a17.81,17.81,0,0,1-5.61.5C174.74,37.93,175.13,37.31,175.13,37.31Z"/><line class="cls-14" x1="215.98" y1="30.15" x2="216.67" y2="43.31"/></g></g></g><circle cx="212.05" cy="42.79" r="1.21"/><line class="cls-7" x1="237.98" y1="39.07" x2="237.98" y2="41.49"/><circle cx="237.88" cy="42.14" r="1.21"/><line class="cls-7" x1="274.14" y1="39.72" x2="274.14" y2="42.14"/><g id="Layer_2-3" data-name="Layer 2"><g id="master-2" data-name="master"><g id="fighterPlane-2" data-name="fighterPlane"><path class="cls-9" d="M241.35,35.38s3.86.8,5.47.91a35.12,35.12,0,0,0,6.18-.93s4.29-2.43,6.5-2.55,4,.39,4.69,1.16,16.46-.27,16.55,1.54-3.68,2.6-3.68,2.6l.06,1.2s-11.3,2.8-15.74,2.44c0,0-.14,1.21-.94,1.25a21.45,21.45,0,0,1-12.37-2.16s-10.49-.85-11.7-1-1.7-1.84-1.77-2.91.21-5.95.69-5.87a2.62,2.62,0,0,1,3.4-.18Z"/><path class="cls-10" d="M254.71,41.09s3.14-1.37,5.69-2.7,6.86.44,7.48.81.61,1.91.61,1.91a19.91,19.91,0,0,1-6.91.43Z"/><path class="cls-15" d="M253.54,35.07a12.2,12.2,0,0,0,5.72.77,10.61,10.61,0,0,0,5.67-1.67c.34,0-2.95-1.87-5.83-1.34A18.63,18.63,0,0,0,253.54,35.07Z"/><line class="cls-12" x1="262.97" y1="33.25" x2="263.06" y2="35.1"/><path class="cls-13" d="M235.1,31.29l3.72-.2s0-.47-1.68-.75S235.1,31.29,235.1,31.29Z"/><path class="cls-13" d="M277.06,38.11l-.19-3.61s4,.19,3.86,1S280.44,37.33,277.06,38.11Z"/><path class="cls-10" d="M237.13,37.31l5-.46s1.82.3.84.75a17.81,17.81,0,0,1-5.61.5C236.74,37.93,237.13,37.31,237.13,37.31Z"/><line class="cls-14" x1="277.98" y1="30.15" x2="278.67" y2="43.31"/></g></g></g><circle cx="274.05" cy="42.79" r="1.21"/><line class="cls-7" x1="300.98" y1="39.07" x2="300.98" y2="41.49"/><circle cx="300.88" cy="42.14" r="1.21"/><line class="cls-7" x1="337.14" y1="39.72" x2="337.14" y2="42.14"/><g id="Layer_2-4" data-name="Layer 2"><g id="master-3" data-name="master"><g id="fighterPlane-3" data-name="fighterPlane"><path class="cls-9" d="M304.35,35.38s3.86.8,5.47.91a35.12,35.12,0,0,0,6.18-.93s4.29-2.43,6.5-2.55,4,.39,4.69,1.16,16.46-.27,16.55,1.54-3.68,2.6-3.68,2.6l.06,1.2s-11.3,2.8-15.74,2.44c0,0-.14,1.21-.94,1.25a21.45,21.45,0,0,1-12.37-2.16s-10.49-.85-11.7-1-1.7-1.84-1.77-2.91.21-5.95.69-5.87a2.62,2.62,0,0,1,3.4-.18Z"/><path class="cls-10" d="M317.71,41.09s3.14-1.37,5.69-2.7,6.86.44,7.48.81.61,1.91.61,1.91a19.91,19.91,0,0,1-6.91.43Z"/><path class="cls-16" d="M316.54,35.07a12.2,12.2,0,0,0,5.72.77,10.61,10.61,0,0,0,5.67-1.67c.34,0-2.95-1.87-5.83-1.34A18.63,18.63,0,0,0,316.54,35.07Z"/><line class="cls-12" x1="325.97" y1="33.25" x2="326.06" y2="35.1"/><path class="cls-13" d="M298.1,31.29l3.72-.2s0-.47-1.68-.75S298.1,31.29,298.1,31.29Z"/><path class="cls-13" d="M340.06,38.11l-.19-3.61s4,.19,3.86,1S343.44,37.33,340.06,38.11Z"/><path class="cls-10" d="M300.13,37.31l5-.46s1.82.3.84.75a17.81,17.81,0,0,1-5.61.5C299.74,37.93,300.13,37.31,300.13,37.31Z"/><line class="cls-14" x1="340.98" y1="30.15" x2="341.67" y2="43.31"/></g></g></g><circle cx="337.05" cy="42.79" r="1.21"/><polyline class="cls-17" points="126.63 34.41 126.63 31.18 134.32 31.18 134.32 34.41"/><path class="cls-17" d="M126.38,25.91h8.81a2.3,2.3,0,0,1,2.31,2.3v1.13a2.3,2.3,0,0,1-2.31,2.31h-8.81a2.3,2.3,0,0,1-2.31-2.31V28.21A2.3,2.3,0,0,1,126.38,25.91Z"/><line class="cls-18" x1="133.87" y1="27.34" x2="144.58" y2="24.26"/><polyline class="cls-17" points="54.33 25.41 54.33 22.18 62.02 22.18 62.02 25.41"/><path class="cls-17" d="M64.58,19.21v1.13a2.3,2.3,0,0,1-2.3,2.31H53.46a2.3,2.3,0,0,1-2.31-2.31V19.21a2.3,2.3,0,0,1,2.31-2.3h8.82A2.29,2.29,0,0,1,64.58,19.21Z"/><line class="cls-18" x1="44.07" y1="15.26" x2="54.78" y2="18.34"/></g></g></svg>