<?xml version="1.0" encoding="utf-8"?>
<!-- Generator: Adobe Illustrator 24.0.1, SVG Export Plug-In . SVG Version: 6.00 Build 0)  -->
<svg version="1.1" id="Layer_1" xmlns="http://www.w3.org/2000/svg" xmlns:xlink="http://www.w3.org/1999/xlink" x="0px" y="0px"
	 viewBox="0 0 511.4 110.8" style="enable-background:new 0 0 511.4 110.8;" xml:space="preserve">
<style type="text/css">
	.st0{fill:none;stroke:#2F3030;stroke-linecap:round;stroke-miterlimit:10;}
	.st1{fill:none;stroke:#2F3030;stroke-miterlimit:10;}
	.st2{fill:#545556;}
	.st3{fill:#2F3030;}
	.st4{fill:#FFFFFF;}
	.st5{fill:#444444;}
</style>
<title>warship1</title>
<g id="Layer_2_1_">
	<g id="master">
		<line class="st0" x1="296.3" y1="63" x2="296.3" y2="70.5"/>
		<polygon class="st1" points="355.1,13 344.2,70.5 367.6,70.5 358.8,13 367.6,13 367.6,10.5 343.8,10.5 343.8,13 		"/>
		<line class="st0" x1="387.6" y1="35.3" x2="387.6" y2="41.5"/>
		<path class="st2" d="M28.5,110.8h470.8c2.8,0,5.2-1.7,6.2-4.3l5.9-16.6h-8.8v-7.5h-46.2l-3.8-11.9h-160l-2.5,11.9H105v9H93.8
			L67.5,70.5H0l21.4,36.2C22.9,109.2,25.6,110.8,28.5,110.8z"/>
		<polygon class="st3" points="263.8,90.7 502.6,89.9 502.6,80.5 105,80.5 105,91.4 		"/>
		<rect x="372.6" y="41.5" class="st2" width="20" height="15"/>
		<rect x="365.1" y="56.4" class="st3" width="45" height="8.7"/>
		<rect x="311.3" y="64.3" class="st3" width="96.3" height="6.3"/>
		<rect x="312.6" y="49" class="st3" width="35" height="16.2"/>
		<line class="st0" x1="351.3" y1="0.5" x2="351.3" y2="10.5"/>
		<rect x="308.8" y="41.5" class="st2" width="32.5" height="11.3"/>
		<line class="st0" x1="347.6" y1="4.3" x2="347.6" y2="10.5"/>
		<line class="st0" x1="347.6" y1="28" x2="347.6" y2="36.8"/>
		<line class="st0" x1="345.1" y1="36.8" x2="367.6" y2="36.8"/>
		<line class="st0" x1="352.6" y1="26.8" x2="361.3" y2="26.8"/>
		<line class="st0" x1="365.1" y1="50.5" x2="347.6" y2="50.5"/>
		<rect x="23.8" y="66.2" class="st3" width="10.5" height="4.4"/>
		<path class="st3" d="M23.4,59h12c1.7,0,3.1,1.4,3.1,3.1v1.5c0,1.7-1.4,3.1-3.1,3.1h-12c-1.7,0-3.1-1.4-3.1-3.1v-1.5
			C20.3,60.4,21.7,59,23.4,59z"/>
		<line class="st0" x1="6.4" y1="56.8" x2="21" y2="61"/>
		<rect x="473.9" y="76.2" class="st3" width="10.5" height="4.4"/>
		<path class="st3" d="M487.8,72.1v1.5c0,1.7-1.4,3.1-3.1,3.1h-12c-1.7,0-3.1-1.4-3.1-3.1v-1.5c0-1.7,1.4-3.1,3.1-3.1h12
			C486.4,69,487.8,70.4,487.8,72.1z"/>
		<line class="st0" x1="487.1" y1="70.9" x2="501.7" y2="66.8"/>
		<path class="st0" d="M485.6,66.8"/>
		<path class="st0" d="M506.5,60.8"/>
	</g>
</g>
<rect x="324" y="65.5" class="st4" width="3.2" height="3.2"/>
<rect x="328.9" y="65.5" class="st4" width="3.2" height="3.2"/>
<rect x="333.3" y="65.5" class="st4" width="3.2" height="3.2"/>
<rect x="338.1" y="65.5" class="st4" width="3.2" height="3.2"/>
<rect x="342.6" y="65.5" class="st4" width="3.2" height="3.2"/>
<rect x="347.5" y="65.5" class="st4" width="3.2" height="3.2"/>
<rect x="351.9" y="65.5" class="st4" width="3.2" height="3.2"/>
<rect x="356.7" y="65.5" class="st4" width="3.2" height="3.2"/>
<rect x="361.2" y="65.5" class="st4" width="3.2" height="3.2"/>
<rect x="366.1" y="65.5" class="st4" width="3.2" height="3.2"/>
<rect x="370.5" y="65.5" class="st4" width="3.2" height="3.2"/>
<rect x="375.3" y="65.5" class="st4" width="3.2" height="3.2"/>
<rect x="379.6" y="65.5" class="st4" width="3.2" height="3.2"/>
<rect x="384.4" y="65.5" class="st4" width="3.2" height="3.2"/>
<rect x="388.8" y="65.5" class="st4" width="3.2" height="3.2"/>
<rect x="393.7" y="65.5" class="st4" width="3.2" height="3.2"/>
<path class="st5" d="M0,70.5c9.9,14.3,26.8,25.7,46.3,32.8c43.3,4.5,282.1,1,460,0l-0.9,2.7c-0.9,2.8-3.5,4.8-6.5,4.8H28.6
	c-3,0-5.8-1.6-7.3-4.2L0,70.5z"/>
</svg>
