<?xml version="1.0" encoding="utf-8"?>
<!-- Generator: Adobe Illustrator 24.0.1, SVG Export Plug-In . SVG Version: 6.00 Build 0)  -->
<svg version="1.1" id="Layer_1" xmlns="http://www.w3.org/2000/svg" xmlns:xlink="http://www.w3.org/1999/xlink" x="0px" y="0px"
	 viewBox="0 0 511.4 110.8" style="enable-background:new 0 0 511.4 110.8;" xml:space="preserve">
<style type="text/css">
	.st0{fill:none;stroke:#000000;stroke-width:2;stroke-linecap:round;stroke-miterlimit:10;}
	.st1{fill:#545556;}
	.st2{fill:#2F3030;}
	.st3{fill:none;stroke:#000000;stroke-linecap:round;stroke-miterlimit:10;}
	.st4{fill:none;stroke:#000000;stroke-miterlimit:10;}
	.st5{fill:#FFFFFF;}
</style>
<title>warship1</title>
<g id="Layer_2_1_">
	<g id="master">
		<line class="st0" x1="296.3" y1="63" x2="296.3" y2="70.5"/>
		<polygon class="st0" points="355.1,13 344.2,70.5 367.6,70.5 358.8,13 367.6,13 367.6,10.5 343.8,10.5 343.8,13 		"/>
		<line class="st0" x1="387.6" y1="34.3" x2="387.6" y2="40.5"/>
		<polygon class="st1" points="23.8,110.8 503.9,110.8 511.4,89.9 502.6,89.9 502.6,82.4 456.4,82.4 452.6,70.5 292.6,70.5 
			290.1,82.4 105,82.4 105,91.4 93.8,91.4 67.5,70.5 0,70.5 		"/>
		<polygon class="st2" points="263.8,92.2 502.6,90.6 502.6,80.5 105,80.5 105,90.6 		"/>
		<rect x="372.6" y="40.5" class="st1" width="20" height="15"/>
		<rect x="365.1" y="55.5" class="st2" width="45" height="8.7"/>
		<rect x="311.3" y="64.3" class="st2" width="96.3" height="6.3"/>
		<rect x="312.6" y="48" class="st2" width="35" height="16.2"/>
		<line class="st3" x1="351.3" y1="0.5" x2="351.3" y2="10.5"/>
		<rect x="308.8" y="40.5" class="st1" width="32.5" height="11.3"/>
		<line class="st3" x1="347.6" y1="4.3" x2="347.6" y2="10.5"/>
		<line class="st3" x1="347.6" y1="28" x2="347.6" y2="36.8"/>
		<line class="st3" x1="345.1" y1="36.8" x2="367.6" y2="36.8"/>
		<line class="st3" x1="352.6" y1="26.8" x2="361.3" y2="26.8"/>
		<line class="st4" x1="365.1" y1="50.5" x2="347.6" y2="50.5"/>
		<rect x="31.3" y="64.3" width="15" height="6.3"/>
		<path d="M30.8,53H48c2.5,0,4.5,2,4.5,4.5v2.2c0,2.5-2,4.5-4.5,4.5H30.8c-2.5,0-4.5-2-4.5-4.5v-2.2C26.3,55,28.3,53,30.8,53z"/>
		<line class="st0" x1="5.4" y1="50.8" x2="26.3" y2="56.8"/>
		<rect x="467.6" y="74.3" width="15" height="6.3"/>
		<path d="M483.1,74.3h-17.3c-2.5,0-4.5-2-4.5-4.5v-2.3c0-2.5,2-4.5,4.5-4.5h17.3c2.5,0,4.5,2,4.5,4.5v2.3
			C487.6,72.3,485.6,74.3,483.1,74.3z"/>
		<line class="st0" x1="508.5" y1="60.8" x2="487.6" y2="66.8"/>
	</g>
</g>
<rect x="324" y="65.5" class="st5" width="3.2" height="3.2"/>
<rect x="328.9" y="65.5" class="st5" width="3.2" height="3.2"/>
<rect x="333.3" y="65.5" class="st5" width="3.2" height="3.2"/>
<rect x="338.1" y="65.5" class="st5" width="3.2" height="3.2"/>
<rect x="342.6" y="65.5" class="st5" width="3.2" height="3.2"/>
<rect x="347.5" y="65.5" class="st5" width="3.2" height="3.2"/>
<rect x="351.9" y="65.5" class="st5" width="3.2" height="3.2"/>
<rect x="356.7" y="65.5" class="st5" width="3.2" height="3.2"/>
<rect x="361.2" y="65.5" class="st5" width="3.2" height="3.2"/>
<rect x="366.1" y="65.5" class="st5" width="3.2" height="3.2"/>
<rect x="370.5" y="65.5" class="st5" width="3.2" height="3.2"/>
<rect x="375.3" y="65.5" class="st5" width="3.2" height="3.2"/>
<rect x="379.6" y="65.5" class="st5" width="3.2" height="3.2"/>
<rect x="384.4" y="65.5" class="st5" width="3.2" height="3.2"/>
<rect x="388.8" y="65.5" class="st5" width="3.2" height="3.2"/>
<rect x="393.7" y="65.5" class="st5" width="3.2" height="3.2"/>
</svg>
