<svg xmlns="http://www.w3.org/2000/svg" viewBox="0 0 511.37 110.78"><defs><style>.cls-1,.cls-4,.cls-5{fill:none;stroke:#000;stroke-miterlimit:10;}.cls-1,.cls-4{stroke-linecap:round;}.cls-1{stroke-width:2px;}.cls-2{fill:#545556;}.cls-3{fill:#2f3030;}</style></defs><title>warship1</title><g id="Layer_2" data-name="Layer 2"><g id="master"><line class="cls-1" x1="296.32" y1="63.02" x2="296.32" y2="70.52"/><polygon class="cls-1" points="355.09 13 344.19 70.52 367.6 70.52 358.84 13 367.59 13 367.59 10.5 343.83 10.5 343.83 13 355.09 13"/><line class="cls-1" x1="387.59" y1="34.26" x2="387.59" y2="40.51"/><polygon class="cls-2" points="23.76 110.78 503.87 110.78 511.38 89.9 502.62 89.9 502.62 82.44 456.36 82.44 452.61 70.52 292.57 70.52 290.07 82.44 105.03 82.44 105.03 91.39 93.77 91.39 67.52 70.52 0 70.52 23.76 110.78"/><polygon class="cls-3" points="263.81 92.22 502.62 90.55 502.62 80.52 105.03 80.52 105.03 90.55 263.81 92.22"/><rect class="cls-2" x="372.59" y="40.51" width="20" height="15"/><rect class="cls-3" x="365.09" y="55.51" width="45.01" height="8.75"/><rect class="cls-3" x="311.33" y="64.27" width="96.27" height="6.25"/><rect class="cls-3" x="312.58" y="48.01" width="35.01" height="16.25"/><line class="cls-4" x1="351.34" y1="0.5" x2="351.34" y2="10.5"/><rect class="cls-2" x="308.83" y="40.51" width="32.51" height="11.25"/><line class="cls-4" x1="347.58" y1="4.25" x2="347.58" y2="10.5"/><line class="cls-4" x1="347.58" y1="28.01" x2="347.58" y2="36.76"/><line class="cls-4" x1="345.08" y1="36.76" x2="367.59" y2="36.76"/><line class="cls-4" x1="352.59" y1="26.76" x2="361.34" y2="26.76"/><line class="cls-5" x1="365.09" y1="50.51" x2="347.58" y2="50.51"/><rect x="31.26" y="64.27" width="15" height="6.25"/><rect x="26.26" y="53.01" width="26.26" height="11.25" rx="4.5"/><line class="cls-1" x1="5.37" y1="50.78" x2="26.26" y2="56.76"/><rect x="467.63" y="74.27" width="15" height="6.25" transform="translate(950.26 154.78) rotate(-180)"/><rect x="461.37" y="63.01" width="26.26" height="11.25" rx="4.5" transform="translate(949.01 137.28) rotate(-180)"/><line class="cls-1" x1="508.51" y1="60.78" x2="487.63" y2="66.76"/></g></g></svg>